<svg width="1440" height="579" viewBox="0 0 1440 579" fill="none" xmlns="http://www.w3.org/2000/svg">
<g opacity="0.4">
<path d="M710.799 238.484C711.434 238.484 711.949 238.117 711.949 237.664C711.949 237.211 711.434 236.844 710.799 236.844C710.163 236.844 709.648 237.211 709.648 237.664C709.648 238.117 710.163 238.484 710.799 238.484Z" fill="white"/>
<path d="M1036.29 170.212C1036.93 170.212 1037.44 169.845 1037.44 169.392C1037.44 168.939 1036.93 168.572 1036.29 168.572C1035.66 168.572 1035.14 168.939 1035.14 169.392C1035.14 169.845 1035.66 170.212 1036.29 170.212Z" fill="white"/>
<path d="M144.92 435.713C145.555 435.713 146.07 435.346 146.07 434.893C146.07 434.44 145.555 434.073 144.92 434.073C144.284 434.073 143.77 434.44 143.77 434.893C143.77 435.346 144.284 435.713 144.92 435.713Z" fill="white"/>
<path d="M814.314 246.913C814.949 246.913 815.464 246.546 815.464 246.093C815.464 245.64 814.949 245.272 814.314 245.272C813.679 245.272 813.164 245.64 813.164 246.093C813.164 246.546 813.679 246.913 814.314 246.913Z" fill="white"/>
<path d="M1139.81 178.641C1140.44 178.641 1140.96 178.274 1140.96 177.821C1140.96 177.368 1140.44 177.001 1139.81 177.001C1139.17 177.001 1138.66 177.368 1138.66 177.821C1138.66 178.274 1139.17 178.641 1139.81 178.641Z" fill="white"/>
<path d="M248.435 444.142C249.071 444.142 249.585 443.775 249.585 443.322C249.585 442.869 249.071 442.501 248.435 442.501C247.8 442.501 247.285 442.869 247.285 443.322C247.285 443.775 247.8 444.142 248.435 444.142Z" fill="white"/>
<path d="M917.826 204.769C918.461 204.769 918.976 204.402 918.976 203.949C918.976 203.496 918.461 203.129 917.826 203.129C917.191 203.129 916.676 203.496 916.676 203.949C916.676 204.402 917.191 204.769 917.826 204.769Z" fill="white"/>
<path d="M1243.32 136.498C1243.96 136.498 1244.47 136.131 1244.47 135.678C1244.47 135.225 1243.96 134.858 1243.32 134.858C1242.69 134.858 1242.17 135.225 1242.17 135.678C1242.17 136.131 1242.69 136.498 1243.32 136.498Z" fill="white"/>
<path d="M351.947 401.999C352.582 401.999 353.097 401.632 353.097 401.179C353.097 400.726 352.582 400.359 351.947 400.359C351.312 400.359 350.797 400.726 350.797 401.179C350.797 401.632 351.312 401.999 351.947 401.999Z" fill="white"/>
<path d="M1021.34 128.912C1021.98 128.912 1022.49 128.545 1022.49 128.092C1022.49 127.639 1021.98 127.272 1021.34 127.272C1020.71 127.272 1020.19 127.639 1020.19 128.092C1020.19 128.545 1020.71 128.912 1021.34 128.912Z" fill="white"/>
<path d="M1346.84 60.6403C1347.47 60.6403 1347.99 60.2731 1347.99 59.8201C1347.99 59.3672 1347.47 59 1346.84 59C1346.2 59 1345.69 59.3672 1345.69 59.8201C1345.69 60.2731 1346.2 60.6403 1346.84 60.6403Z" fill="white"/>
<path d="M455.463 326.141C456.098 326.141 456.613 325.774 456.613 325.321C456.613 324.868 456.098 324.501 455.463 324.501C454.827 324.501 454.312 324.868 454.312 325.321C454.312 325.774 454.827 326.141 455.463 326.141Z" fill="white"/>
<path d="M986.838 69.9123C987.473 69.9123 987.988 69.5451 987.988 69.0921C987.988 68.6392 987.473 68.272 986.838 68.272C986.202 68.272 985.688 68.6392 985.688 69.0921C985.688 69.5451 986.202 69.9123 986.838 69.9123Z" fill="white"/>
<path d="M1312.33 1.64029C1312.97 1.64029 1313.48 1.2731 1313.48 0.820145C1313.48 0.367191 1312.97 0 1312.33 0C1311.69 0 1311.18 0.367191 1311.18 0.820145C1311.18 1.2731 1311.69 1.64029 1312.33 1.64029Z" fill="white"/>
<path d="M883.322 44.6264C883.957 44.6264 884.472 44.2592 884.472 43.8062C884.472 43.3533 883.957 42.9861 883.322 42.9861C882.687 42.9861 882.172 43.3533 882.172 43.8062C882.172 44.2592 882.687 44.6264 883.322 44.6264Z" fill="white"/>
<path d="M837.314 154.198C837.949 154.198 838.464 153.831 838.464 153.378C838.464 152.925 837.949 152.558 837.314 152.558C836.679 152.558 836.164 152.925 836.164 153.378C836.164 153.831 836.679 154.198 837.314 154.198Z" fill="white"/>
<path d="M1162.81 85.9264C1163.45 85.9264 1163.96 85.5592 1163.96 85.1063C1163.96 84.6533 1163.45 84.2861 1162.81 84.2861C1162.18 84.2861 1161.66 84.6533 1161.66 85.1063C1161.66 85.5592 1162.18 85.9264 1162.81 85.9264Z" fill="white"/>
<path d="M906.326 263.77C906.961 263.77 907.476 263.403 907.476 262.95C907.476 262.497 906.961 262.13 906.326 262.13C905.691 262.13 905.176 262.497 905.176 262.95C905.176 263.403 905.691 263.77 906.326 263.77Z" fill="white"/>
<path d="M1231.82 195.498C1232.46 195.498 1232.97 195.131 1232.97 194.678C1232.97 194.225 1232.46 193.858 1231.82 193.858C1231.19 193.858 1230.67 194.225 1230.67 194.678C1230.67 195.131 1231.19 195.498 1231.82 195.498Z" fill="white"/>
<path d="M340.447 460.999C341.082 460.999 341.597 460.632 341.597 460.179C341.597 459.726 341.082 459.359 340.447 459.359C339.812 459.359 339.297 459.726 339.297 460.179C339.297 460.632 339.812 460.999 340.447 460.999Z" fill="white"/>
<path d="M1078.85 213.198C1079.48 213.198 1080 212.831 1080 212.378C1080 211.925 1079.48 211.558 1078.85 211.558C1078.21 211.558 1077.7 211.925 1077.7 212.378C1077.7 212.831 1078.21 213.198 1078.85 213.198Z" fill="white"/>
<path d="M1404.35 144.926C1404.98 144.926 1405.5 144.559 1405.5 144.106C1405.5 143.653 1404.98 143.286 1404.35 143.286C1403.71 143.286 1403.2 143.653 1403.2 144.106C1403.2 144.559 1403.71 144.926 1404.35 144.926Z" fill="white"/>
<path d="M512.97 410.427C513.606 410.427 514.121 410.06 514.121 409.607C514.121 409.154 513.606 408.787 512.97 408.787C512.335 408.787 511.82 409.154 511.82 409.607C511.82 410.06 512.335 410.427 512.97 410.427Z" fill="white"/>
<path d="M1101.85 204.769C1102.49 204.769 1103 204.402 1103 203.949C1103 203.496 1102.49 203.129 1101.85 203.129C1101.22 203.129 1100.7 203.496 1100.7 203.949C1100.7 204.402 1101.22 204.769 1101.85 204.769Z" fill="white"/>
<path d="M1427.35 136.498C1427.98 136.498 1428.5 136.131 1428.5 135.678C1428.5 135.225 1427.98 134.858 1427.35 134.858C1426.71 134.858 1426.2 135.225 1426.2 135.678C1426.2 136.131 1426.71 136.498 1427.35 136.498Z" fill="white"/>
<path d="M535.974 401.999C536.61 401.999 537.125 401.632 537.125 401.179C537.125 400.726 536.61 400.359 535.974 400.359C535.339 400.359 534.824 400.726 534.824 401.179C534.824 401.632 535.339 401.999 535.974 401.999Z" fill="white"/>
<path d="M1113.35 128.912C1113.99 128.912 1114.5 128.545 1114.5 128.092C1114.5 127.639 1113.99 127.272 1113.35 127.272C1112.72 127.272 1112.2 127.639 1112.2 128.092C1112.2 128.545 1112.72 128.912 1113.35 128.912Z" fill="white"/>
<path d="M1438.85 60.6403C1439.48 60.6403 1440 60.2731 1440 59.8201C1440 59.3672 1439.48 59 1438.85 59C1438.21 59 1437.7 59.3672 1437.7 59.8201C1437.7 60.2731 1438.21 60.6403 1438.85 60.6403Z" fill="white"/>
<path d="M547.478 326.141C548.113 326.141 548.628 325.774 548.628 325.321C548.628 324.868 548.113 324.501 547.478 324.501C546.843 324.501 546.328 324.868 546.328 325.321C546.328 325.774 546.843 326.141 547.478 326.141Z" fill="white"/>
<path d="M1089.2 95.1979C1089.84 95.1979 1090.35 94.8307 1090.35 94.3778C1090.35 93.9248 1089.84 93.5576 1089.2 93.5576C1088.57 93.5576 1088.05 93.9248 1088.05 94.3778C1088.05 94.8307 1088.57 95.1979 1089.2 95.1979Z" fill="white"/>
<path d="M1414.7 26.9259C1415.33 26.9259 1415.85 26.5587 1415.85 26.1058C1415.85 25.6528 1415.33 25.2856 1414.7 25.2856C1414.06 25.2856 1413.55 25.6528 1413.55 26.1058C1413.55 26.5587 1414.06 26.9259 1414.7 26.9259Z" fill="white"/>
<path d="M523.322 292.427C523.957 292.427 524.472 292.06 524.472 291.607C524.472 291.154 523.957 290.787 523.322 290.787C522.687 290.787 522.172 291.154 522.172 291.607C522.172 292.06 522.687 292.427 523.322 292.427Z" fill="white"/>
<path d="M950.033 137.341C950.668 137.341 951.183 136.974 951.183 136.521C951.183 136.068 950.668 135.701 950.033 135.701C949.398 135.701 948.883 136.068 948.883 136.521C948.883 136.974 949.398 137.341 950.033 137.341Z" fill="white"/>
<path d="M1275.53 69.069C1276.16 69.069 1276.68 68.7018 1276.68 68.2489C1276.68 67.7959 1276.16 67.4287 1275.53 67.4287C1274.89 67.4287 1274.38 67.7959 1274.38 68.2489C1274.38 68.7018 1274.89 69.069 1275.53 69.069Z" fill="white"/>
<path d="M384.15 334.57C384.785 334.57 385.3 334.203 385.3 333.75C385.3 333.297 384.785 332.93 384.15 332.93C383.515 332.93 383 333.297 383 333.75C383 334.203 383.515 334.57 384.15 334.57Z" fill="white"/>
<path d="M810.861 196.341C811.496 196.341 812.011 195.974 812.011 195.521C812.011 195.068 811.496 194.701 810.861 194.701C810.226 194.701 809.711 195.068 809.711 195.521C809.711 195.974 810.226 196.341 810.861 196.341Z" fill="white"/>
<path d="M1136.36 128.069C1136.99 128.069 1137.51 127.702 1137.51 127.249C1137.51 126.796 1136.99 126.429 1136.36 126.429C1135.72 126.429 1135.21 126.796 1135.21 127.249C1135.21 127.702 1135.72 128.069 1136.36 128.069Z" fill="white"/>
<path d="M244.986 393.57C245.621 393.57 246.136 393.203 246.136 392.75C246.136 392.297 245.621 391.93 244.986 391.93C244.351 391.93 243.836 392.297 243.836 392.75C243.836 393.203 244.351 393.57 244.986 393.57Z" fill="white"/>
<path d="M660.189 289.055C660.824 289.055 661.339 288.688 661.339 288.235C661.339 287.782 660.824 287.415 660.189 287.415C659.554 287.415 659.039 287.782 659.039 288.235C659.039 288.688 659.554 289.055 660.189 289.055Z" fill="white"/>
<path d="M985.685 220.784C986.321 220.784 986.835 220.417 986.835 219.964C986.835 219.511 986.321 219.144 985.685 219.144C985.05 219.144 984.535 219.511 984.535 219.964C984.535 220.417 985.05 220.784 985.685 220.784Z" fill="white"/>
<path d="M94.3142 486.285C94.9494 486.285 95.4644 485.918 95.4644 485.465C95.4644 485.012 94.9494 484.645 94.3142 484.645C93.679 484.645 93.1641 485.012 93.1641 485.465C93.1641 485.918 93.679 486.285 94.3142 486.285Z" fill="white"/>
<path d="M567.029 381.77C567.664 381.77 568.179 381.403 568.179 380.95C568.179 380.497 567.664 380.13 567.029 380.13C566.394 380.13 565.879 380.497 565.879 380.95C565.879 381.403 566.394 381.77 567.029 381.77Z" fill="white"/>
<path d="M892.525 313.498C893.16 313.498 893.675 313.131 893.675 312.678C893.675 312.225 893.16 311.858 892.525 311.858C891.89 311.858 891.375 312.225 891.375 312.678C891.375 313.131 891.89 313.498 892.525 313.498Z" fill="white"/>
<path d="M1.15016 579C1.78537 579 2.30032 578.633 2.30032 578.18C2.30032 577.727 1.78537 577.36 1.15016 577.36C0.514944 577.36 0 577.727 0 578.18C0 578.633 0.514944 579 1.15016 579Z" fill="white"/>
</g>
</svg>
