<svg width="1440" height="1307" viewBox="0 0 1440 1307" fill="none" xmlns="http://www.w3.org/2000/svg">
<g opacity="0.4">
<path d="M710.799 538.339C711.434 538.339 711.949 537.51 711.949 536.488C711.949 535.465 711.434 534.636 710.799 534.636C710.163 534.636 709.648 535.465 709.648 536.488C709.648 537.51 710.163 538.339 710.799 538.339Z" fill="white"/>
<path d="M1036.29 384.227C1036.93 384.227 1037.44 383.398 1037.44 382.375C1037.44 381.353 1036.93 380.524 1036.29 380.524C1035.66 380.524 1035.14 381.353 1035.14 382.375C1035.14 383.398 1035.66 384.227 1036.29 384.227Z" fill="white"/>
<path d="M144.92 983.553C145.555 983.553 146.07 982.724 146.07 981.701C146.07 980.679 145.555 979.85 144.92 979.85C144.284 979.85 143.77 980.679 143.77 981.701C143.77 982.724 144.284 983.553 144.92 983.553Z" fill="white"/>
<path d="M814.314 557.366C814.949 557.366 815.464 556.537 815.464 555.515C815.464 554.492 814.949 553.664 814.314 553.664C813.679 553.664 813.164 554.492 813.164 555.515C813.164 556.537 813.679 557.366 814.314 557.366Z" fill="white"/>
<path d="M1139.81 403.254C1140.44 403.254 1140.96 402.426 1140.96 401.403C1140.96 400.381 1140.44 399.552 1139.81 399.552C1139.17 399.552 1138.66 400.381 1138.66 401.403C1138.66 402.426 1139.17 403.254 1139.81 403.254Z" fill="white"/>
<path d="M248.435 1002.58C249.071 1002.58 249.585 1001.75 249.585 1000.73C249.585 999.705 249.071 998.876 248.435 998.876C247.8 998.876 247.285 999.705 247.285 1000.73C247.285 1001.75 247.8 1002.58 248.435 1002.58Z" fill="white"/>
<path d="M917.826 462.233C918.461 462.233 918.976 461.405 918.976 460.382C918.976 459.36 918.461 458.531 917.826 458.531C917.191 458.531 916.676 459.36 916.676 460.382C916.676 461.405 917.191 462.233 917.826 462.233Z" fill="white"/>
<path d="M1243.32 308.123C1243.96 308.123 1244.47 307.294 1244.47 306.272C1244.47 305.249 1243.96 304.42 1243.32 304.42C1242.69 304.42 1242.17 305.249 1242.17 306.272C1242.17 307.294 1242.69 308.123 1243.32 308.123Z" fill="white"/>
<path d="M351.947 907.448C352.582 907.448 353.097 906.619 353.097 905.597C353.097 904.574 352.582 903.746 351.947 903.746C351.312 903.746 350.797 904.574 350.797 905.597C350.797 906.619 351.312 907.448 351.947 907.448Z" fill="white"/>
<path d="M1021.34 290.998C1021.98 290.998 1022.49 290.169 1022.49 289.147C1022.49 288.124 1021.98 287.295 1021.34 287.295C1020.71 287.295 1020.19 288.124 1020.19 289.147C1020.19 290.169 1020.71 290.998 1021.34 290.998Z" fill="white"/>
<path d="M1346.84 136.885C1347.47 136.885 1347.99 136.056 1347.99 135.034C1347.99 134.011 1347.47 133.183 1346.84 133.183C1346.2 133.183 1345.69 134.011 1345.69 135.034C1345.69 136.056 1346.2 136.885 1346.84 136.885Z" fill="white"/>
<path d="M455.463 736.212C456.098 736.212 456.613 735.383 456.613 734.361C456.613 733.338 456.098 732.509 455.463 732.509C454.827 732.509 454.312 733.338 454.312 734.361C454.312 735.383 454.827 736.212 455.463 736.212Z" fill="white"/>
<path d="M986.838 157.815C987.473 157.815 987.988 156.987 987.988 155.964C987.988 154.942 987.473 154.113 986.838 154.113C986.202 154.113 985.688 154.942 985.688 155.964C985.688 156.987 986.202 157.815 986.838 157.815Z" fill="white"/>
<path d="M1312.33 3.70269C1312.97 3.70269 1313.48 2.87382 1313.48 1.85135C1313.48 0.828876 1312.97 0 1312.33 0C1311.69 0 1311.18 0.828876 1311.18 1.85135C1311.18 2.87382 1311.69 3.70269 1312.33 3.70269Z" fill="white"/>
<path d="M883.322 100.737C883.957 100.737 884.472 99.9078 884.472 98.8853C884.472 97.8628 883.957 97.0339 883.322 97.0339C882.687 97.0339 882.172 97.8628 882.172 98.8853C882.172 99.9078 882.687 100.737 883.322 100.737Z" fill="white"/>
<path d="M837.314 348.078C837.949 348.078 838.464 347.249 838.464 346.226C838.464 345.204 837.949 344.375 837.314 344.375C836.679 344.375 836.164 345.204 836.164 346.226C836.164 347.249 836.679 348.078 837.314 348.078Z" fill="white"/>
<path d="M1162.81 193.965C1163.45 193.965 1163.96 193.137 1163.96 192.114C1163.96 191.092 1163.45 190.263 1162.81 190.263C1162.18 190.263 1161.66 191.092 1161.66 192.114C1161.66 193.137 1162.18 193.965 1162.81 193.965Z" fill="white"/>
<path d="M906.326 595.419C906.961 595.419 907.476 594.59 907.476 593.567C907.476 592.545 906.961 591.716 906.326 591.716C905.691 591.716 905.176 592.545 905.176 593.567C905.176 594.59 905.691 595.419 906.326 595.419Z" fill="white"/>
<path d="M1231.82 441.306C1232.46 441.306 1232.97 440.477 1232.97 439.454C1232.97 438.432 1232.46 437.603 1231.82 437.603C1231.19 437.603 1230.67 438.432 1230.67 439.454C1230.67 440.477 1231.19 441.306 1231.82 441.306Z" fill="white"/>
<path d="M340.447 1040.63C341.082 1040.63 341.597 1039.8 341.597 1038.78C341.597 1037.76 341.082 1036.93 340.447 1036.93C339.812 1036.93 339.297 1037.76 339.297 1038.78C339.297 1039.8 339.812 1040.63 340.447 1040.63Z" fill="white"/>
<path d="M1078.85 481.261C1079.48 481.261 1080 480.432 1080 479.409C1080 478.387 1079.48 477.558 1078.85 477.558C1078.21 477.558 1077.7 478.387 1077.7 479.409C1077.7 480.432 1078.21 481.261 1078.85 481.261Z" fill="white"/>
<path d="M1404.35 327.149C1404.98 327.149 1405.5 326.32 1405.5 325.298C1405.5 324.275 1404.98 323.446 1404.35 323.446C1403.71 323.446 1403.2 324.275 1403.2 325.298C1403.2 326.32 1403.71 327.149 1404.35 327.149Z" fill="white"/>
<path d="M512.97 926.474C513.606 926.474 514.121 925.645 514.121 924.623C514.121 923.6 513.606 922.771 512.97 922.771C512.335 922.771 511.82 923.6 511.82 924.623C511.82 925.645 512.335 926.474 512.97 926.474Z" fill="white"/>
<path d="M1101.85 462.233C1102.49 462.233 1103 461.405 1103 460.382C1103 459.36 1102.49 458.531 1101.85 458.531C1101.22 458.531 1100.7 459.36 1100.7 460.382C1100.7 461.405 1101.22 462.233 1101.85 462.233Z" fill="white"/>
<path d="M1427.35 308.123C1427.98 308.123 1428.5 307.294 1428.5 306.272C1428.5 305.249 1427.98 304.42 1427.35 304.42C1426.71 304.42 1426.2 305.249 1426.2 306.272C1426.2 307.294 1426.71 308.123 1427.35 308.123Z" fill="white"/>
<path d="M535.974 907.448C536.61 907.448 537.125 906.619 537.125 905.597C537.125 904.574 536.61 903.746 535.974 903.746C535.339 903.746 534.824 904.574 534.824 905.597C534.824 906.619 535.339 907.448 535.974 907.448Z" fill="white"/>
<path d="M1113.35 290.998C1113.99 290.998 1114.5 290.169 1114.5 289.147C1114.5 288.124 1113.99 287.295 1113.35 287.295C1112.72 287.295 1112.2 288.124 1112.2 289.147C1112.2 290.169 1112.72 290.998 1113.35 290.998Z" fill="white"/>
<path d="M1438.85 136.885C1439.48 136.885 1440 136.056 1440 135.034C1440 134.011 1439.48 133.183 1438.85 133.183C1438.21 133.183 1437.7 134.011 1437.7 135.034C1437.7 136.056 1438.21 136.885 1438.85 136.885Z" fill="white"/>
<path d="M547.478 736.212C548.113 736.212 548.628 735.383 548.628 734.361C548.628 733.338 548.113 732.509 547.478 732.509C546.843 732.509 546.328 733.338 546.328 734.361C546.328 735.383 546.843 736.212 547.478 736.212Z" fill="white"/>
<path d="M1089.2 214.894C1089.84 214.894 1090.35 214.065 1090.35 213.043C1090.35 212.02 1089.84 211.191 1089.2 211.191C1088.57 211.191 1088.05 212.02 1088.05 213.043C1088.05 214.065 1088.57 214.894 1089.2 214.894Z" fill="white"/>
<path d="M1414.7 60.7808C1415.33 60.7808 1415.85 59.9519 1415.85 58.9295C1415.85 57.907 1415.33 57.0781 1414.7 57.0781C1414.06 57.0781 1413.55 57.907 1413.55 58.9295C1413.55 59.9519 1414.06 60.7808 1414.7 60.7808Z" fill="white"/>
<path d="M523.322 660.107C523.957 660.107 524.472 659.279 524.472 658.256C524.472 657.234 523.957 656.405 523.322 656.405C522.687 656.405 522.172 657.234 522.172 658.256C522.172 659.279 522.687 660.107 523.322 660.107Z" fill="white"/>
<path d="M950.033 310.025C950.668 310.025 951.183 309.197 951.183 308.174C951.183 307.152 950.668 306.323 950.033 306.323C949.398 306.323 948.883 307.152 948.883 308.174C948.883 309.197 949.398 310.025 950.033 310.025Z" fill="white"/>
<path d="M1275.53 155.912C1276.16 155.912 1276.68 155.083 1276.68 154.061C1276.68 153.038 1276.16 152.209 1275.53 152.209C1274.89 152.209 1274.38 153.038 1274.38 154.061C1274.38 155.083 1274.89 155.912 1275.53 155.912Z" fill="white"/>
<path d="M384.15 755.239C384.785 755.239 385.3 754.41 385.3 753.387C385.3 752.365 384.785 751.536 384.15 751.536C383.515 751.536 383 752.365 383 753.387C383 754.41 383.515 755.239 384.15 755.239Z" fill="white"/>
<path d="M810.861 443.209C811.496 443.209 812.011 442.38 812.011 441.358C812.011 440.335 811.496 439.506 810.861 439.506C810.226 439.506 809.711 440.335 809.711 441.358C809.711 442.38 810.226 443.209 810.861 443.209Z" fill="white"/>
<path d="M1136.36 289.096C1136.99 289.096 1137.51 288.267 1137.51 287.245C1137.51 286.222 1136.99 285.394 1136.36 285.394C1135.72 285.394 1135.21 286.222 1135.21 287.245C1135.21 288.267 1135.72 289.096 1136.36 289.096Z" fill="white"/>
<path d="M244.986 888.421C245.621 888.421 246.136 887.593 246.136 886.57C246.136 885.548 245.621 884.719 244.986 884.719C244.351 884.719 243.836 885.548 243.836 886.57C243.836 887.593 244.351 888.421 244.986 888.421Z" fill="white"/>
<path d="M660.189 652.496C660.824 652.496 661.339 651.667 661.339 650.645C661.339 649.622 660.824 648.793 660.189 648.793C659.554 648.793 659.039 649.622 659.039 650.645C659.039 651.667 659.554 652.496 660.189 652.496Z" fill="white"/>
<path d="M985.685 498.385C986.321 498.385 986.835 497.556 986.835 496.534C986.835 495.511 986.321 494.683 985.685 494.683C985.05 494.683 984.535 495.511 984.535 496.534C984.535 497.556 985.05 498.385 985.685 498.385Z" fill="white"/>
<path d="M94.3142 1097.71C94.9494 1097.71 95.4644 1096.88 95.4644 1095.86C95.4644 1094.84 94.9494 1094.01 94.3142 1094.01C93.679 1094.01 93.1641 1094.84 93.1641 1095.86C93.1641 1096.88 93.679 1097.71 94.3142 1097.71Z" fill="white"/>
<path d="M567.029 861.785C567.664 861.785 568.179 860.956 568.179 859.934C568.179 858.911 567.664 858.083 567.029 858.083C566.394 858.083 565.879 858.911 565.879 859.934C565.879 860.956 566.394 861.785 567.029 861.785Z" fill="white"/>
<path d="M892.525 707.672C893.16 707.672 893.675 706.844 893.675 705.821C893.675 704.799 893.16 703.97 892.525 703.97C891.89 703.97 891.375 704.799 891.375 705.821C891.375 706.844 891.89 707.672 892.525 707.672Z" fill="white"/>
<path d="M1.15016 1307C1.78537 1307 2.30032 1306.17 2.30032 1305.15C2.30032 1304.13 1.78537 1303.3 1.15016 1303.3C0.514944 1303.3 0 1304.13 0 1305.15C0 1306.17 0.514944 1307 1.15016 1307Z" fill="white"/>
</g>
</svg>
