<svg width="1440" height="724" viewBox="0 0 1440 724" fill="none" xmlns="http://www.w3.org/2000/svg">
<g opacity="0.4">
<path d="M710.799 298.392C711.434 298.392 711.949 297.933 711.949 297.368C711.949 296.802 711.434 296.344 710.799 296.344C710.163 296.344 709.648 296.802 709.648 297.368C709.648 297.933 710.163 298.392 710.799 298.392Z" fill="white"/>
<path d="M1036.29 213.142C1036.93 213.142 1037.44 212.683 1037.44 212.118C1037.44 211.552 1036.93 211.094 1036.29 211.094C1035.66 211.094 1035.14 211.552 1035.14 212.118C1035.14 212.683 1035.66 213.142 1036.29 213.142Z" fill="white"/>
<path d="M144.92 544.675C145.555 544.675 146.07 544.217 146.07 543.651C146.07 543.085 145.555 542.627 144.92 542.627C144.284 542.627 143.77 543.085 143.77 543.651C143.77 544.217 144.284 544.675 144.92 544.675Z" fill="white"/>
<path d="M814.314 308.919C814.949 308.919 815.464 308.461 815.464 307.895C815.464 307.33 814.949 306.871 814.314 306.871C813.679 306.871 813.164 307.33 813.164 307.895C813.164 308.461 813.679 308.919 814.314 308.919Z" fill="white"/>
<path d="M1139.81 223.669C1140.44 223.669 1140.96 223.211 1140.96 222.645C1140.96 222.08 1140.44 221.621 1139.81 221.621C1139.17 221.621 1138.66 222.08 1138.66 222.645C1138.66 223.211 1139.17 223.669 1139.81 223.669Z" fill="white"/>
<path d="M248.435 555.199C249.071 555.199 249.585 554.74 249.585 554.175C249.585 553.609 249.071 553.15 248.435 553.15C247.8 553.15 247.285 553.609 247.285 554.175C247.285 554.74 247.8 555.199 248.435 555.199Z" fill="white"/>
<path d="M917.826 256.294C918.461 256.294 918.976 255.836 918.976 255.27C918.976 254.705 918.461 254.246 917.826 254.246C917.191 254.246 916.676 254.705 916.676 255.27C916.676 255.836 917.191 256.294 917.826 256.294Z" fill="white"/>
<path d="M1243.32 171.044C1243.96 171.044 1244.47 170.586 1244.47 170.02C1244.47 169.455 1243.96 168.996 1243.32 168.996C1242.69 168.996 1242.17 169.455 1242.17 170.02C1242.17 170.586 1242.69 171.044 1243.32 171.044Z" fill="white"/>
<path d="M351.947 502.576C352.582 502.576 353.097 502.117 353.097 501.551C353.097 500.986 352.582 500.527 351.947 500.527C351.312 500.527 350.797 500.986 350.797 501.551C350.797 502.117 351.312 502.576 351.947 502.576Z" fill="white"/>
<path d="M1021.34 161.572C1021.98 161.572 1022.49 161.113 1022.49 160.548C1022.49 159.982 1021.98 159.523 1021.34 159.523C1020.71 159.523 1020.19 159.982 1020.19 160.548C1020.19 161.113 1020.71 161.572 1021.34 161.572Z" fill="white"/>
<path d="M1346.84 76.3197C1347.47 76.3197 1347.99 75.8612 1347.99 75.2956C1347.99 74.73 1347.47 74.2715 1346.84 74.2715C1346.2 74.2715 1345.69 74.73 1345.69 75.2956C1345.69 75.8612 1346.2 76.3197 1346.84 76.3197Z" fill="white"/>
<path d="M455.463 407.853C456.098 407.853 456.613 407.394 456.613 406.829C456.613 406.263 456.098 405.805 455.463 405.805C454.827 405.805 454.312 406.263 454.312 406.829C454.312 407.394 454.827 407.853 455.463 407.853Z" fill="white"/>
<path d="M986.838 87.8978C987.473 87.8978 987.988 87.4393 987.988 86.8737C987.988 86.3081 987.473 85.8496 986.838 85.8496C986.202 85.8496 985.688 86.3081 985.688 86.8737C985.688 87.4393 986.202 87.8978 986.838 87.8978Z" fill="white"/>
<path d="M1312.33 2.64589C1312.97 2.64589 1313.48 2.18738 1313.48 1.62178C1313.48 1.05617 1312.97 0.597656 1312.33 0.597656C1311.69 0.597656 1311.18 1.05617 1311.18 1.62178C1311.18 2.18738 1311.69 2.64589 1312.33 2.64589Z" fill="white"/>
<path d="M883.322 56.3217C883.957 56.3217 884.472 55.8632 884.472 55.2976C884.472 54.732 883.957 54.2734 883.322 54.2734C882.687 54.2734 882.172 54.732 882.172 55.2976C882.172 55.8632 882.687 56.3217 883.322 56.3217Z" fill="white"/>
<path d="M837.314 193.146C837.949 193.146 838.464 192.687 838.464 192.122C838.464 191.556 837.949 191.098 837.314 191.098C836.679 191.098 836.164 191.556 836.164 192.122C836.164 192.687 836.679 193.146 837.314 193.146Z" fill="white"/>
<path d="M1162.81 107.894C1163.45 107.894 1163.96 107.435 1163.96 106.87C1163.96 106.304 1163.45 105.846 1162.81 105.846C1162.18 105.846 1161.66 106.304 1161.66 106.87C1161.66 107.435 1162.18 107.894 1162.81 107.894Z" fill="white"/>
<path d="M906.326 329.968C906.961 329.968 907.476 329.51 907.476 328.944C907.476 328.378 906.961 327.92 906.326 327.92C905.691 327.92 905.176 328.378 905.176 328.944C905.176 329.51 905.691 329.968 906.326 329.968Z" fill="white"/>
<path d="M1231.82 244.718C1232.46 244.718 1232.97 244.26 1232.97 243.694C1232.97 243.128 1232.46 242.67 1231.82 242.67C1231.19 242.67 1230.67 243.128 1230.67 243.694C1230.67 244.26 1231.19 244.718 1231.82 244.718Z" fill="white"/>
<path d="M340.447 576.249C341.082 576.249 341.597 575.791 341.597 575.225C341.597 574.66 341.082 574.201 340.447 574.201C339.812 574.201 339.297 574.66 339.297 575.225C339.297 575.791 339.812 576.249 340.447 576.249Z" fill="white"/>
<path d="M1078.85 266.82C1079.48 266.82 1080 266.361 1080 265.796C1080 265.23 1079.48 264.771 1078.85 264.771C1078.21 264.771 1077.7 265.23 1077.7 265.796C1077.7 266.361 1078.21 266.82 1078.85 266.82Z" fill="white"/>
<path d="M1404.35 181.568C1404.98 181.568 1405.5 181.109 1405.5 180.544C1405.5 179.978 1404.98 179.52 1404.35 179.52C1403.71 179.52 1403.2 179.978 1403.2 180.544C1403.2 181.109 1403.71 181.568 1404.35 181.568Z" fill="white"/>
<path d="M512.97 513.101C513.606 513.101 514.121 512.642 514.121 512.077C514.121 511.511 513.606 511.053 512.97 511.053C512.335 511.053 511.82 511.511 511.82 512.077C511.82 512.642 512.335 513.101 512.97 513.101Z" fill="white"/>
<path d="M1101.85 256.294C1102.49 256.294 1103 255.836 1103 255.27C1103 254.705 1102.49 254.246 1101.85 254.246C1101.22 254.246 1100.7 254.705 1100.7 255.27C1100.7 255.836 1101.22 256.294 1101.85 256.294Z" fill="white"/>
<path d="M1427.35 171.042C1427.98 171.042 1428.5 170.584 1428.5 170.018C1428.5 169.453 1427.98 168.994 1427.35 168.994C1426.71 168.994 1426.2 169.453 1426.2 170.018C1426.2 170.584 1426.71 171.042 1427.35 171.042Z" fill="white"/>
<path d="M535.974 502.578C536.61 502.578 537.125 502.119 537.125 501.553C537.125 500.988 536.61 500.529 535.974 500.529C535.339 500.529 534.824 500.988 534.824 501.553C534.824 502.119 535.339 502.578 535.974 502.578Z" fill="white"/>
<path d="M1113.35 161.57C1113.99 161.57 1114.5 161.111 1114.5 160.546C1114.5 159.98 1113.99 159.521 1113.35 159.521C1112.72 159.521 1112.2 159.98 1112.2 160.546C1112.2 161.111 1112.72 161.57 1113.35 161.57Z" fill="white"/>
<path d="M1438.85 76.3197C1439.48 76.3197 1440 75.8612 1440 75.2956C1440 74.73 1439.48 74.2715 1438.85 74.2715C1438.21 74.2715 1437.7 74.73 1437.7 75.2956C1437.7 75.8612 1438.21 76.3197 1438.85 76.3197Z" fill="white"/>
<path d="M547.478 407.853C548.113 407.853 548.628 407.394 548.628 406.829C548.628 406.263 548.113 405.805 547.478 405.805C546.843 405.805 546.328 406.263 546.328 406.829C546.328 407.394 546.843 407.853 547.478 407.853Z" fill="white"/>
<path d="M1089.2 119.472C1089.84 119.472 1090.35 119.014 1090.35 118.448C1090.35 117.882 1089.84 117.424 1089.2 117.424C1088.57 117.424 1088.05 117.882 1088.05 118.448C1088.05 119.014 1088.57 119.472 1089.2 119.472Z" fill="white"/>
<path d="M1414.7 34.2201C1415.33 34.2201 1415.85 33.7616 1415.85 33.196C1415.85 32.6304 1415.33 32.1719 1414.7 32.1719C1414.06 32.1719 1413.55 32.6304 1413.55 33.196C1413.55 33.7616 1414.06 34.2201 1414.7 34.2201Z" fill="white"/>
<path d="M523.322 365.753C523.957 365.753 524.472 365.295 524.472 364.729C524.472 364.164 523.957 363.705 523.322 363.705C522.687 363.705 522.172 364.164 522.172 364.729C522.172 365.295 522.687 365.753 523.322 365.753Z" fill="white"/>
<path d="M950.033 172.097C950.668 172.097 951.183 171.639 951.183 171.073C951.183 170.507 950.668 170.049 950.033 170.049C949.398 170.049 948.883 170.507 948.883 171.073C948.883 171.639 949.398 172.097 950.033 172.097Z" fill="white"/>
<path d="M1275.53 86.8451C1276.16 86.8451 1276.68 86.3866 1276.68 85.821C1276.68 85.2554 1276.16 84.7969 1275.53 84.7969C1274.89 84.7969 1274.38 85.2554 1274.38 85.821C1274.38 86.3866 1274.89 86.8451 1275.53 86.8451Z" fill="white"/>
<path d="M384.15 418.376C384.785 418.376 385.3 417.918 385.3 417.352C385.3 416.787 384.785 416.328 384.15 416.328C383.515 416.328 383 416.787 383 417.352C383 417.918 383.515 418.376 384.15 418.376Z" fill="white"/>
<path d="M810.861 245.771C811.496 245.771 812.011 245.312 812.011 244.747C812.011 244.181 811.496 243.723 810.861 243.723C810.226 243.723 809.711 244.181 809.711 244.747C809.711 245.312 810.226 245.771 810.861 245.771Z" fill="white"/>
<path d="M1136.36 160.517C1136.99 160.517 1137.51 160.058 1137.51 159.493C1137.51 158.927 1136.99 158.469 1136.36 158.469C1135.72 158.469 1135.21 158.927 1135.21 159.493C1135.21 160.058 1135.72 160.517 1136.36 160.517Z" fill="white"/>
<path d="M244.986 492.05C245.621 492.05 246.136 491.592 246.136 491.026C246.136 490.46 245.621 490.002 244.986 490.002C244.351 490.002 243.836 490.46 243.836 491.026C243.836 491.592 244.351 492.05 244.986 492.05Z" fill="white"/>
<path d="M660.189 361.542C660.824 361.542 661.339 361.084 661.339 360.518C661.339 359.953 660.824 359.494 660.189 359.494C659.554 359.494 659.039 359.953 659.039 360.518C659.039 361.084 659.554 361.542 660.189 361.542Z" fill="white"/>
<path d="M985.685 276.292C986.321 276.292 986.835 275.834 986.835 275.268C986.835 274.703 986.321 274.244 985.685 274.244C985.05 274.244 984.535 274.703 984.535 275.268C984.535 275.834 985.05 276.292 985.685 276.292Z" fill="white"/>
<path d="M94.3142 607.824C94.9494 607.824 95.4644 607.365 95.4644 606.8C95.4644 606.234 94.9494 605.775 94.3142 605.775C93.679 605.775 93.1641 606.234 93.1641 606.8C93.1641 607.365 93.679 607.824 94.3142 607.824Z" fill="white"/>
<path d="M567.029 477.316C567.664 477.316 568.179 476.857 568.179 476.292C568.179 475.726 567.664 475.268 567.029 475.268C566.394 475.268 565.879 475.726 565.879 476.292C565.879 476.857 566.394 477.316 567.029 477.316Z" fill="white"/>
<path d="M892.525 392.064C893.16 392.064 893.675 391.605 893.675 391.04C893.675 390.474 893.16 390.016 892.525 390.016C891.89 390.016 891.375 390.474 891.375 391.04C891.375 391.605 891.89 392.064 892.525 392.064Z" fill="white"/>
<path d="M1.15016 723.597C1.78537 723.597 2.30032 723.139 2.30032 722.573C2.30032 722.007 1.78537 721.549 1.15016 721.549C0.514944 721.549 0 722.007 0 722.573C0 723.139 0.514944 723.597 1.15016 723.597Z" fill="white"/>
</g>
</svg>
