<svg width="1136" height="768" viewBox="0 0 1136 768" fill="none" xmlns="http://www.w3.org/2000/svg">
<g clip-path="url(#clip0_14634_2280)">
<g opacity="0.02">
<rect x="0.5" y="0.5" width="99" height="99" rx="11.5" stroke="#FCFCF4" stroke-opacity="0.2"/>
<rect x="124.5" y="0.5" width="99" height="99" rx="11.5" stroke="#FCFCF4" stroke-opacity="0.2"/>
<rect x="248.5" y="0.5" width="99" height="99" rx="11.5" stroke="#FCFCF4" stroke-opacity="0.2"/>
<rect x="372.5" y="0.5" width="99" height="99" rx="11.5" stroke="#FCFCF4" stroke-opacity="0.2"/>
<rect x="496.5" y="0.5" width="99" height="99" rx="11.5" stroke="#FCFCF4" stroke-opacity="0.2"/>
<rect x="620.5" y="0.5" width="99" height="99" rx="11.5" stroke="#FCFCF4" stroke-opacity="0.2"/>
<rect x="744.5" y="0.5" width="99" height="99" rx="11.5" stroke="#FCFCF4" stroke-opacity="0.2"/>
<rect x="868.5" y="0.5" width="99" height="99" rx="11.5" stroke="#FCFCF4" stroke-opacity="0.2"/>
<rect x="992.5" y="0.5" width="99" height="99" rx="11.5" stroke="#FCFCF4" stroke-opacity="0.2"/>
<rect x="1116.5" y="0.5" width="99" height="99" rx="11.5" stroke="#FCFCF4" stroke-opacity="0.2"/>
</g>
<g opacity="0.06">
<rect x="0.5" y="124.5" width="99" height="99" rx="11.5" stroke="#FCFCF4" stroke-opacity="0.2"/>
<rect x="124.5" y="124.5" width="99" height="99" rx="11.5" stroke="#FCFCF4" stroke-opacity="0.2"/>
<rect x="248.5" y="124.5" width="99" height="99" rx="11.5" stroke="#FCFCF4" stroke-opacity="0.2"/>
<rect x="372.5" y="124.5" width="99" height="99" rx="11.5" stroke="#FCFCF4" stroke-opacity="0.2"/>
<rect x="496.5" y="124.5" width="99" height="99" rx="11.5" stroke="#FCFCF4" stroke-opacity="0.2"/>
<rect x="620.5" y="124.5" width="99" height="99" rx="11.5" stroke="#FCFCF4" stroke-opacity="0.2"/>
<rect x="744.5" y="124.5" width="99" height="99" rx="11.5" stroke="#FCFCF4" stroke-opacity="0.2"/>
<rect x="868.5" y="124.5" width="99" height="99" rx="11.5" stroke="#FCFCF4" stroke-opacity="0.2"/>
<rect x="992.5" y="124.5" width="99" height="99" rx="11.5" stroke="#FCFCF4" stroke-opacity="0.2"/>
<rect x="1116.5" y="124.5" width="99" height="99" rx="11.5" stroke="#FCFCF4" stroke-opacity="0.2"/>
</g>
<g opacity="0.08">
<rect x="-39.5" y="248.5" width="99" height="99" rx="11.5" stroke="#FCFCF4" stroke-opacity="0.2"/>
<rect x="84.5" y="248.5" width="99" height="99" rx="11.5" stroke="#FCFCF4" stroke-opacity="0.2"/>
<rect x="208.5" y="248.5" width="99" height="99" rx="11.5" stroke="#FCFCF4" stroke-opacity="0.2"/>
<rect x="332.5" y="248.5" width="99" height="99" rx="11.5" stroke="#FCFCF4" stroke-opacity="0.2"/>
<rect x="456.5" y="248.5" width="99" height="99" rx="11.5" stroke="#FCFCF4" stroke-opacity="0.2"/>
<rect x="580.5" y="248.5" width="99" height="99" rx="11.5" stroke="#FCFCF4" stroke-opacity="0.2"/>
<rect x="704.5" y="248.5" width="99" height="99" rx="11.5" stroke="#FCFCF4" stroke-opacity="0.2"/>
<rect x="828.5" y="248.5" width="99" height="99" rx="11.5" stroke="#FCFCF4" stroke-opacity="0.2"/>
<rect x="952.5" y="248.5" width="99" height="99" rx="11.5" stroke="#FCFCF4" stroke-opacity="0.2"/>
<rect x="1076.5" y="248.5" width="99" height="99" rx="11.5" stroke="#FCFCF4" stroke-opacity="0.2"/>
</g>
<g opacity="0.1">
<rect x="0.5" y="372.5" width="99" height="99" rx="11.5" stroke="#FCFCF4" stroke-opacity="0.2"/>
<rect x="124.5" y="372.5" width="99" height="99" rx="11.5" stroke="#FCFCF4" stroke-opacity="0.2"/>
<rect x="248.5" y="372.5" width="99" height="99" rx="11.5" stroke="#FCFCF4" stroke-opacity="0.2"/>
<rect x="372.5" y="372.5" width="99" height="99" rx="11.5" stroke="#FCFCF4" stroke-opacity="0.2"/>
<rect x="496.5" y="372.5" width="99" height="99" rx="11.5" stroke="#FCFCF4" stroke-opacity="0.2"/>
<rect x="620.5" y="372.5" width="99" height="99" rx="11.5" stroke="#FCFCF4" stroke-opacity="0.2"/>
<rect x="744.5" y="372.5" width="99" height="99" rx="11.5" stroke="#FCFCF4" stroke-opacity="0.2"/>
<rect x="868.5" y="372.5" width="99" height="99" rx="11.5" stroke="#FCFCF4" stroke-opacity="0.2"/>
<rect x="992.5" y="372.5" width="99" height="99" rx="11.5" stroke="#FCFCF4" stroke-opacity="0.2"/>
<rect x="1116.5" y="372.5" width="99" height="99" rx="11.5" stroke="#FCFCF4" stroke-opacity="0.2"/>
</g>
<g opacity="0.12">
<rect x="-39.5" y="496.5" width="99" height="99" rx="11.5" stroke="#FCFCF4" stroke-opacity="0.2"/>
<rect x="84.5" y="496.5" width="99" height="99" rx="11.5" stroke="#FCFCF4" stroke-opacity="0.2"/>
<rect x="208.5" y="496.5" width="99" height="99" rx="11.5" stroke="#FCFCF4" stroke-opacity="0.2"/>
<rect x="332.5" y="496.5" width="99" height="99" rx="11.5" stroke="#FCFCF4" stroke-opacity="0.2"/>
<rect x="456.5" y="496.5" width="99" height="99" rx="11.5" stroke="#FCFCF4" stroke-opacity="0.2"/>
<rect x="580.5" y="496.5" width="99" height="99" rx="11.5" stroke="#FCFCF4" stroke-opacity="0.2"/>
<rect x="704.5" y="496.5" width="99" height="99" rx="11.5" stroke="#FCFCF4" stroke-opacity="0.2"/>
<rect x="828.5" y="496.5" width="99" height="99" rx="11.5" stroke="#FCFCF4" stroke-opacity="0.2"/>
<rect x="952.5" y="496.5" width="99" height="99" rx="11.5" stroke="#FCFCF4" stroke-opacity="0.2"/>
<rect x="1076.5" y="496.5" width="99" height="99" rx="11.5" stroke="#FCFCF4" stroke-opacity="0.2"/>
</g>
<g opacity="0.14">
<rect x="0.5" y="620.5" width="99" height="99" rx="11.5" stroke="#FCFCF4" stroke-opacity="0.2"/>
<rect x="124.5" y="620.5" width="99" height="99" rx="11.5" stroke="#FCFCF4" stroke-opacity="0.2"/>
<rect x="248.5" y="620.5" width="99" height="99" rx="11.5" stroke="#FCFCF4" stroke-opacity="0.2"/>
<rect x="372.5" y="620.5" width="99" height="99" rx="11.5" stroke="#FCFCF4" stroke-opacity="0.2"/>
<rect x="496.5" y="620.5" width="99" height="99" rx="11.5" stroke="#FCFCF4" stroke-opacity="0.2"/>
<rect x="620.5" y="620.5" width="99" height="99" rx="11.5" stroke="#FCFCF4" stroke-opacity="0.2"/>
<rect x="744.5" y="620.5" width="99" height="99" rx="11.5" stroke="#FCFCF4" stroke-opacity="0.2"/>
<rect x="868.5" y="620.5" width="99" height="99" rx="11.5" stroke="#FCFCF4" stroke-opacity="0.2"/>
<rect x="992.5" y="620.5" width="99" height="99" rx="11.5" stroke="#FCFCF4" stroke-opacity="0.2"/>
<rect x="1116.5" y="620.5" width="99" height="99" rx="11.5" stroke="#FCFCF4" stroke-opacity="0.2"/>
</g>
<g opacity="0.16">
<rect x="0.5" y="744.5" width="99" height="99" rx="11.5" stroke="#FCFCF4" stroke-opacity="0.2"/>
<rect x="124.5" y="744.5" width="99" height="99" rx="11.5" stroke="#FCFCF4" stroke-opacity="0.2"/>
<rect x="248.5" y="744.5" width="99" height="99" rx="11.5" stroke="#FCFCF4" stroke-opacity="0.2"/>
<rect x="372.5" y="744.5" width="99" height="99" rx="11.5" stroke="#FCFCF4" stroke-opacity="0.2"/>
<rect x="496.5" y="744.5" width="99" height="99" rx="11.5" stroke="#FCFCF4" stroke-opacity="0.2"/>
<rect x="620.5" y="744.5" width="99" height="99" rx="11.5" stroke="#FCFCF4" stroke-opacity="0.2"/>
<rect x="744.5" y="744.5" width="99" height="99" rx="11.5" stroke="#FCFCF4" stroke-opacity="0.2"/>
<rect x="868.5" y="744.5" width="99" height="99" rx="11.5" stroke="#FCFCF4" stroke-opacity="0.2"/>
<rect x="992.5" y="744.5" width="99" height="99" rx="11.5" stroke="#FCFCF4" stroke-opacity="0.2"/>
<rect x="1116.5" y="744.5" width="99" height="99" rx="11.5" stroke="#FCFCF4" stroke-opacity="0.2"/>
</g>
</g>
<defs>
<clipPath id="clip0_14634_2280">
<rect width="1136" height="968" fill="white"/>
</clipPath>
</defs>
</svg>
