<svg width="145" height="101" viewBox="0 0 145 101" fill="none" xmlns="http://www.w3.org/2000/svg">
<path opacity="0.6" d="M11.0358 22.572L13.0638 19.824H14.4318L12.2598 22.704C12.5598 22.584 12.8717 22.524 13.1718 22.524C14.9718 22.524 16.1838 23.82 16.1838 25.536C16.1838 27.348 14.8158 28.644 13.0278 28.644C11.2278 28.644 9.83575 27.288 9.83575 25.536C9.83575 24.504 10.1478 23.784 11.0358 22.572ZM11.0358 25.548C11.0358 26.736 11.8518 27.588 13.0278 27.588C14.1798 27.588 14.9958 26.736 14.9958 25.548C14.9958 24.36 14.1798 23.52 13.0278 23.52C11.8518 23.52 11.0358 24.36 11.0358 25.548ZM17.2677 24.168C17.2677 21.48 18.6597 19.656 20.8437 19.656C23.0157 19.656 24.4077 21.48 24.4077 24.168C24.4077 26.868 23.0757 28.656 20.8437 28.656C18.5997 28.656 17.2677 26.868 17.2677 24.168ZM18.4317 24.168C18.4317 26.304 19.3197 27.6 20.8437 27.6C22.3677 27.6 23.2437 26.304 23.2437 24.168C23.2437 22.008 22.3677 20.712 20.8437 20.712C19.3197 20.712 18.4317 22.008 18.4317 24.168Z" fill="white" fill-opacity="0.8"/>
<path opacity="0.6" d="M12.9314 58.012H12.0674V57.232L14.5274 54.868H10.6274V53.824H16.0154V54.772L13.6394 57.04C15.1154 57.22 16.2314 58.216 16.2314 59.776C16.2314 61.528 14.9114 62.644 13.1474 62.644C11.4434 62.644 10.2194 61.6 10.2194 59.8H11.3834C11.3834 60.928 12.0794 61.588 13.1714 61.588C14.2994 61.588 15.0314 60.868 15.0314 59.752C15.0314 58.708 14.3114 58.012 12.9314 58.012ZM17.2677 58.168C17.2677 55.48 18.6597 53.656 20.8437 53.656C23.0157 53.656 24.4077 55.48 24.4077 58.168C24.4077 60.868 23.0757 62.656 20.8437 62.656C18.5997 62.656 17.2677 60.868 17.2677 58.168ZM18.4317 58.168C18.4317 60.304 19.3197 61.6 20.8437 61.6C22.3677 61.6 23.2437 60.304 23.2437 58.168C23.2437 56.008 22.3677 54.712 20.8437 54.712C19.3197 54.712 18.4317 56.008 18.4317 58.168Z" fill="white" fill-opacity="0.8"/>
<path opacity="0.6" d="M14.5526 88.88H12.7286V87.824H15.6806V96.5H14.5526V88.88ZM17.2677 92.168C17.2677 89.48 18.6597 87.656 20.8437 87.656C23.0157 87.656 24.4077 89.48 24.4077 92.168C24.4077 94.868 23.0757 96.656 20.8437 96.656C18.5997 96.656 17.2677 94.868 17.2677 92.168ZM18.4317 92.168C18.4317 94.304 19.3197 95.6 20.8437 95.6C22.3677 95.6 23.2437 94.304 23.2437 92.168C23.2437 90.008 22.3677 88.712 20.8437 88.712C19.3197 88.712 18.4317 90.008 18.4317 92.168Z" fill="white" fill-opacity="0.8"/>
<rect opacity="0.2" x="43" y="28.5" width="6" height="72" rx="3" fill="white"/>
<rect opacity="0.2" x="67" y="20.5" width="6" height="80" rx="3" fill="white"/>
<rect opacity="0.2" x="91" y="60.5" width="6" height="40" rx="3" fill="white"/>
<rect opacity="0.2" x="115" y="41.5" width="6" height="59" rx="3" fill="white"/>
<rect x="139" y="0.5" width="6" height="100" rx="3" fill="#398FFF"/>
</svg>
