<svg width="1440" height="768" viewBox="0 0 1440 768" fill="none" xmlns="http://www.w3.org/2000/svg">
<g opacity="0.4">
<path d="M710.799 316.331C711.434 316.331 711.949 315.844 711.949 315.243C711.949 314.642 711.434 314.155 710.799 314.155C710.163 314.155 709.648 314.642 709.648 315.243C709.648 315.844 710.163 316.331 710.799 316.331Z" fill="white"/>
<path d="M1036.29 225.773C1036.93 225.773 1037.44 225.286 1037.44 224.686C1037.44 224.085 1036.93 223.598 1036.29 223.598C1035.66 223.598 1035.14 224.085 1035.14 224.686C1035.14 225.286 1035.66 225.773 1036.29 225.773Z" fill="white"/>
<path d="M144.92 577.941C145.555 577.941 146.07 577.454 146.07 576.853C146.07 576.252 145.555 575.765 144.92 575.765C144.284 575.765 143.77 576.252 143.77 576.853C143.77 577.454 144.284 577.941 144.92 577.941Z" fill="white"/>
<path d="M814.314 327.511C814.949 327.511 815.464 327.024 815.464 326.423C815.464 325.823 814.949 325.335 814.314 325.335C813.679 325.335 813.164 325.823 813.164 326.423C813.164 327.024 813.679 327.511 814.314 327.511Z" fill="white"/>
<path d="M1139.81 236.954C1140.44 236.954 1140.96 236.467 1140.96 235.866C1140.96 235.266 1140.44 234.779 1139.81 234.779C1139.17 234.779 1138.66 235.266 1138.66 235.866C1138.66 236.467 1139.17 236.954 1139.81 236.954Z" fill="white"/>
<path d="M248.435 589.121C249.071 589.121 249.585 588.634 249.585 588.033C249.585 587.432 249.071 586.945 248.435 586.945C247.8 586.945 247.285 587.432 247.285 588.033C247.285 588.634 247.8 589.121 248.435 589.121Z" fill="white"/>
<path d="M917.826 271.611C918.461 271.611 918.976 271.124 918.976 270.523C918.976 269.923 918.461 269.436 917.826 269.436C917.191 269.436 916.676 269.923 916.676 270.523C916.676 271.124 917.191 271.611 917.826 271.611Z" fill="white"/>
<path d="M1243.32 181.055C1243.96 181.055 1244.47 180.568 1244.47 179.967C1244.47 179.366 1243.96 178.879 1243.32 178.879C1242.69 178.879 1242.17 179.366 1242.17 179.967C1242.17 180.568 1242.69 181.055 1243.32 181.055Z" fill="white"/>
<path d="M351.947 533.222C352.582 533.222 353.097 532.735 353.097 532.134C353.097 531.533 352.582 531.046 351.947 531.046C351.312 531.046 350.797 531.533 350.797 532.134C350.797 532.735 351.312 533.222 351.947 533.222Z" fill="white"/>
<path d="M1021.34 170.992C1021.98 170.992 1022.49 170.505 1022.49 169.904C1022.49 169.303 1021.98 168.816 1021.34 168.816C1020.71 168.816 1020.19 169.303 1020.19 169.904C1020.19 170.505 1020.71 170.992 1021.34 170.992Z" fill="white"/>
<path d="M1346.84 80.435C1347.47 80.435 1347.99 79.9479 1347.99 79.3471C1347.99 78.7463 1347.47 78.2593 1346.84 78.2593C1346.2 78.2593 1345.69 78.7463 1345.69 79.3471C1345.69 79.9479 1346.2 80.435 1346.84 80.435Z" fill="white"/>
<path d="M455.463 432.602C456.098 432.602 456.613 432.115 456.613 431.514C456.613 430.913 456.098 430.426 455.463 430.426C454.827 430.426 454.312 430.913 454.312 431.514C454.312 432.115 454.827 432.602 455.463 432.602Z" fill="white"/>
<path d="M986.838 92.7333C987.473 92.7333 987.988 92.2463 987.988 91.6455C987.988 91.0447 987.473 90.5576 986.838 90.5576C986.202 90.5576 985.688 91.0447 985.688 91.6455C985.688 92.2463 986.202 92.7333 986.838 92.7333Z" fill="white"/>
<path d="M1312.33 2.17572C1312.97 2.17572 1313.48 1.68867 1313.48 1.08786C1313.48 0.487052 1312.97 0 1312.33 0C1311.69 0 1311.18 0.487052 1311.18 1.08786C1311.18 1.68867 1311.69 2.17572 1312.33 2.17572Z" fill="white"/>
<path d="M883.322 59.1933C883.957 59.1933 884.472 58.7062 884.472 58.1054C884.472 57.5046 883.957 57.0176 883.322 57.0176C882.687 57.0176 882.172 57.5046 882.172 58.1054C882.172 58.7062 882.687 59.1933 883.322 59.1933Z" fill="white"/>
<path d="M837.314 204.532C837.949 204.532 838.464 204.045 838.464 203.445C838.464 202.844 837.949 202.357 837.314 202.357C836.679 202.357 836.164 202.844 836.164 203.445C836.164 204.045 836.679 204.532 837.314 204.532Z" fill="white"/>
<path d="M1162.81 113.975C1163.45 113.975 1163.96 113.488 1163.96 112.887C1163.96 112.286 1163.45 111.799 1162.81 111.799C1162.18 111.799 1161.66 112.286 1161.66 112.887C1161.66 113.488 1162.18 113.975 1162.81 113.975Z" fill="white"/>
<path d="M906.326 349.871C906.961 349.871 907.476 349.384 907.476 348.783C907.476 348.182 906.961 347.695 906.326 347.695C905.691 347.695 905.176 348.182 905.176 348.783C905.176 349.384 905.691 349.871 906.326 349.871Z" fill="white"/>
<path d="M1231.82 259.314C1232.46 259.314 1232.97 258.827 1232.97 258.226C1232.97 257.625 1232.46 257.138 1231.82 257.138C1231.19 257.138 1230.67 257.625 1230.67 258.226C1230.67 258.827 1231.19 259.314 1231.82 259.314Z" fill="white"/>
<path d="M340.447 611.481C341.082 611.481 341.597 610.994 341.597 610.393C341.597 609.792 341.082 609.305 340.447 609.305C339.812 609.305 339.297 609.792 339.297 610.393C339.297 610.994 339.812 611.481 340.447 611.481Z" fill="white"/>
<path d="M1078.85 282.791C1079.48 282.791 1080 282.304 1080 281.704C1080 281.103 1079.48 280.616 1078.85 280.616C1078.21 280.616 1077.7 281.103 1077.7 281.704C1077.7 282.304 1078.21 282.791 1078.85 282.791Z" fill="white"/>
<path d="M1404.35 192.235C1404.98 192.235 1405.5 191.748 1405.5 191.147C1405.5 190.546 1404.98 190.059 1404.35 190.059C1403.71 190.059 1403.2 190.546 1403.2 191.147C1403.2 191.748 1403.71 192.235 1404.35 192.235Z" fill="white"/>
<path d="M512.97 544.401C513.606 544.401 514.121 543.914 514.121 543.313C514.121 542.713 513.606 542.226 512.97 542.226C512.335 542.226 511.82 542.713 511.82 543.313C511.82 543.914 512.335 544.401 512.97 544.401Z" fill="white"/>
<path d="M1101.85 271.611C1102.49 271.611 1103 271.124 1103 270.523C1103 269.923 1102.49 269.436 1101.85 269.436C1101.22 269.436 1100.7 269.923 1100.7 270.523C1100.7 271.124 1101.22 271.611 1101.85 271.611Z" fill="white"/>
<path d="M1427.35 181.055C1427.98 181.055 1428.5 180.568 1428.5 179.967C1428.5 179.366 1427.98 178.879 1427.35 178.879C1426.71 178.879 1426.2 179.366 1426.2 179.967C1426.2 180.568 1426.71 181.055 1427.35 181.055Z" fill="white"/>
<path d="M535.974 533.222C536.61 533.222 537.125 532.735 537.125 532.134C537.125 531.533 536.61 531.046 535.974 531.046C535.339 531.046 534.824 531.533 534.824 532.134C534.824 532.735 535.339 533.222 535.974 533.222Z" fill="white"/>
<path d="M1113.35 170.992C1113.99 170.992 1114.5 170.505 1114.5 169.904C1114.5 169.303 1113.99 168.816 1113.35 168.816C1112.72 168.816 1112.2 169.303 1112.2 169.904C1112.2 170.505 1112.72 170.992 1113.35 170.992Z" fill="white"/>
<path d="M1438.85 80.435C1439.48 80.435 1440 79.9479 1440 79.3471C1440 78.7463 1439.48 78.2593 1438.85 78.2593C1438.21 78.2593 1437.7 78.7463 1437.7 79.3471C1437.7 79.9479 1438.21 80.435 1438.85 80.435Z" fill="white"/>
<path d="M547.474 432.602C548.11 432.602 548.625 432.115 548.625 431.514C548.625 430.913 548.11 430.426 547.474 430.426C546.839 430.426 546.324 430.913 546.324 431.514C546.324 432.115 546.839 432.602 547.474 432.602Z" fill="white"/>
<path d="M1089.2 126.273C1089.84 126.273 1090.35 125.786 1090.35 125.185C1090.35 124.584 1089.84 124.097 1089.2 124.097C1088.57 124.097 1088.05 124.584 1088.05 125.185C1088.05 125.786 1088.57 126.273 1089.2 126.273Z" fill="white"/>
<path d="M1414.7 35.7153C1415.33 35.7153 1415.85 35.2282 1415.85 34.6274C1415.85 34.0266 1415.33 33.5396 1414.7 33.5396C1414.06 33.5396 1413.55 34.0266 1413.55 34.6274C1413.55 35.2282 1414.06 35.7153 1414.7 35.7153Z" fill="white"/>
<path d="M523.322 387.883C523.957 387.883 524.472 387.396 524.472 386.795C524.472 386.194 523.957 385.707 523.322 385.707C522.687 385.707 522.172 386.194 522.172 386.795C522.172 387.396 522.687 387.883 523.322 387.883Z" fill="white"/>
<path d="M950.033 182.172C950.668 182.172 951.183 181.685 951.183 181.084C951.183 180.484 950.668 179.997 950.033 179.997C949.398 179.997 948.883 180.484 948.883 181.084C948.883 181.685 949.398 182.172 950.033 182.172Z" fill="white"/>
<path d="M1275.53 91.6152C1276.16 91.6152 1276.68 91.1281 1276.68 90.5273C1276.68 89.9265 1276.16 89.4395 1275.53 89.4395C1274.89 89.4395 1274.38 89.9265 1274.38 90.5273C1274.38 91.1281 1274.89 91.6152 1275.53 91.6152Z" fill="white"/>
<path d="M384.154 443.782C384.789 443.782 385.304 443.295 385.304 442.695C385.304 442.094 384.789 441.607 384.154 441.607C383.519 441.607 383.004 442.094 383.004 442.695C383.004 443.295 383.519 443.782 384.154 443.782Z" fill="white"/>
<path d="M810.861 260.432C811.496 260.432 812.011 259.945 812.011 259.344C812.011 258.743 811.496 258.256 810.861 258.256C810.226 258.256 809.711 258.743 809.711 259.344C809.711 259.945 810.226 260.432 810.861 260.432Z" fill="white"/>
<path d="M1136.36 169.874C1136.99 169.874 1137.51 169.387 1137.51 168.787C1137.51 168.186 1136.99 167.699 1136.36 167.699C1135.72 167.699 1135.21 168.186 1135.21 168.787C1135.21 169.387 1135.72 169.874 1136.36 169.874Z" fill="white"/>
<path d="M244.982 522.041C245.617 522.041 246.132 521.554 246.132 520.953C246.132 520.353 245.617 519.865 244.982 519.865C244.347 519.865 243.832 520.353 243.832 520.953C243.832 521.554 244.347 522.041 244.982 522.041Z" fill="white"/>
<path d="M660.189 383.41C660.824 383.41 661.339 382.923 661.339 382.322C661.339 381.722 660.824 381.235 660.189 381.235C659.554 381.235 659.039 381.722 659.039 382.322C659.039 382.923 659.554 383.41 660.189 383.41Z" fill="white"/>
<path d="M985.685 292.854C986.321 292.854 986.835 292.367 986.835 291.766C986.835 291.165 986.321 290.678 985.685 290.678C985.05 290.678 984.535 291.165 984.535 291.766C984.535 292.367 985.05 292.854 985.685 292.854Z" fill="white"/>
<path d="M94.3142 645.02C94.9494 645.02 95.4644 644.533 95.4644 643.933C95.4644 643.332 94.9494 642.845 94.3142 642.845C93.679 642.845 93.1641 643.332 93.1641 643.933C93.1641 644.533 93.679 645.02 94.3142 645.02Z" fill="white"/>
<path d="M567.029 506.39C567.664 506.39 568.179 505.903 568.179 505.302C568.179 504.701 567.664 504.214 567.029 504.214C566.394 504.214 565.879 504.701 565.879 505.302C565.879 505.903 566.394 506.39 567.029 506.39Z" fill="white"/>
<path d="M892.521 415.832C893.156 415.832 893.671 415.345 893.671 414.744C893.671 414.144 893.156 413.656 892.521 413.656C891.886 413.656 891.371 414.144 891.371 414.744C891.371 415.345 891.886 415.832 892.521 415.832Z" fill="white"/>
<path d="M1.15016 768C1.78537 768 2.30032 767.513 2.30032 766.913C2.30032 766.312 1.78537 765.825 1.15016 765.825C0.514944 765.825 0 766.312 0 766.913C0 767.513 0.514944 768 1.15016 768Z" fill="white"/>
</g>
</svg>
