<svg width="1440" height="778" viewBox="0 0 1440 778" fill="none" xmlns="http://www.w3.org/2000/svg">
<g opacity="0.4">
<path d="M710.799 320.45C711.434 320.45 711.949 319.957 711.949 319.348C711.949 318.739 711.434 318.246 710.799 318.246C710.163 318.246 709.648 318.739 709.648 319.348C709.648 319.957 710.163 320.45 710.799 320.45Z" fill="white"/>
<path d="M1036.29 228.713C1036.93 228.713 1037.44 228.219 1037.44 227.611C1037.44 227.002 1036.93 226.509 1036.29 226.509C1035.66 226.509 1035.14 227.002 1035.14 227.611C1035.14 228.219 1035.66 228.713 1036.29 228.713Z" fill="white"/>
<path d="M144.92 585.466C145.555 585.466 146.07 584.972 146.07 584.364C146.07 583.755 145.555 583.262 144.92 583.262C144.284 583.262 143.77 583.755 143.77 584.364C143.77 584.972 144.284 585.466 144.92 585.466Z" fill="white"/>
<path d="M814.314 331.776C814.949 331.776 815.464 331.283 815.464 330.674C815.464 330.066 814.949 329.572 814.314 329.572C813.679 329.572 813.164 330.066 813.164 330.674C813.164 331.283 813.679 331.776 814.314 331.776Z" fill="white"/>
<path d="M1139.81 240.04C1140.44 240.04 1140.96 239.547 1140.96 238.938C1140.96 238.329 1140.44 237.836 1139.81 237.836C1139.17 237.836 1138.66 238.329 1138.66 238.938C1138.66 239.547 1139.17 240.04 1139.81 240.04Z" fill="white"/>
<path d="M248.435 596.791C249.071 596.791 249.585 596.298 249.585 595.689C249.585 595.08 249.071 594.587 248.435 594.587C247.8 594.587 247.285 595.08 247.285 595.689C247.285 596.298 247.8 596.791 248.435 596.791Z" fill="white"/>
<path d="M917.826 275.147C918.461 275.147 918.976 274.654 918.976 274.045C918.976 273.437 918.461 272.943 917.826 272.943C917.191 272.943 916.676 273.437 916.676 274.045C916.676 274.654 917.191 275.147 917.826 275.147Z" fill="white"/>
<path d="M1243.32 183.412C1243.96 183.412 1244.47 182.919 1244.47 182.31C1244.47 181.701 1243.96 181.208 1243.32 181.208C1242.69 181.208 1242.17 181.701 1242.17 182.31C1242.17 182.919 1242.69 183.412 1243.32 183.412Z" fill="white"/>
<path d="M351.947 540.164C352.582 540.164 353.097 539.671 353.097 539.062C353.097 538.453 352.582 537.96 351.947 537.96C351.312 537.96 350.797 538.453 350.797 539.062C350.797 539.671 351.312 540.164 351.947 540.164Z" fill="white"/>
<path d="M1021.34 173.219C1021.98 173.219 1022.49 172.725 1022.49 172.117C1022.49 171.508 1021.98 171.015 1021.34 171.015C1020.71 171.015 1020.19 171.508 1020.19 172.117C1020.19 172.725 1020.71 173.219 1021.34 173.219Z" fill="white"/>
<path d="M1346.84 81.4824C1347.47 81.4824 1347.99 80.989 1347.99 80.3803C1347.99 79.7717 1347.47 79.2783 1346.84 79.2783C1346.2 79.2783 1345.69 79.7717 1345.69 80.3803C1345.69 80.989 1346.2 81.4824 1346.84 81.4824Z" fill="white"/>
<path d="M455.463 438.235C456.098 438.235 456.613 437.742 456.613 437.133C456.613 436.525 456.098 436.031 455.463 436.031C454.827 436.031 454.312 436.525 454.312 437.133C454.312 437.742 454.827 438.235 455.463 438.235Z" fill="white"/>
<path d="M986.838 93.9404C987.473 93.9404 987.988 93.447 987.988 92.8384C987.988 92.2297 987.473 91.7363 986.838 91.7363C986.202 91.7363 985.688 92.2297 985.688 92.8384C985.688 93.447 986.202 93.9404 986.838 93.9404Z" fill="white"/>
<path d="M1312.33 2.20405C1312.97 2.20405 1313.48 1.71066 1313.48 1.10203C1313.48 0.493394 1312.97 0 1312.33 0C1311.69 0 1311.18 0.493394 1311.18 1.10203C1311.18 1.71066 1311.69 2.20405 1312.33 2.20405Z" fill="white"/>
<path d="M883.322 59.9638C883.957 59.9638 884.472 59.4704 884.472 58.8618C884.472 58.2532 883.957 57.7598 883.322 57.7598C882.687 57.7598 882.172 58.2532 882.172 58.8618C882.172 59.4704 882.687 59.9638 883.322 59.9638Z" fill="white"/>
<path d="M837.314 207.196C837.949 207.196 838.464 206.703 838.464 206.094C838.464 205.486 837.949 204.992 837.314 204.992C836.679 204.992 836.164 205.486 836.164 206.094C836.164 206.703 836.679 207.196 837.314 207.196Z" fill="white"/>
<path d="M1162.81 115.459C1163.45 115.459 1163.96 114.966 1163.96 114.357C1163.96 113.748 1163.45 113.255 1162.81 113.255C1162.18 113.255 1161.66 113.748 1161.66 114.357C1161.66 114.966 1162.18 115.459 1162.81 115.459Z" fill="white"/>
<path d="M906.326 354.427C906.961 354.427 907.476 353.933 907.476 353.325C907.476 352.716 906.961 352.223 906.326 352.223C905.691 352.223 905.176 352.716 905.176 353.325C905.176 353.933 905.691 354.427 906.326 354.427Z" fill="white"/>
<path d="M1231.82 262.69C1232.46 262.69 1232.97 262.197 1232.97 261.588C1232.97 260.98 1232.46 260.486 1231.82 260.486C1231.19 260.486 1230.67 260.98 1230.67 261.588C1230.67 262.197 1231.19 262.69 1231.82 262.69Z" fill="white"/>
<path d="M340.447 619.443C341.082 619.443 341.597 618.95 341.597 618.341C341.597 617.733 341.082 617.239 340.447 617.239C339.812 617.239 339.297 617.733 339.297 618.341C339.297 618.95 339.812 619.443 340.447 619.443Z" fill="white"/>
<path d="M1078.85 286.474C1079.48 286.474 1080 285.98 1080 285.372C1080 284.763 1079.48 284.27 1078.85 284.27C1078.21 284.27 1077.7 284.763 1077.7 285.372C1077.7 285.98 1078.21 286.474 1078.85 286.474Z" fill="white"/>
<path d="M1404.35 194.737C1404.98 194.737 1405.5 194.244 1405.5 193.635C1405.5 193.027 1404.98 192.533 1404.35 192.533C1403.71 192.533 1403.2 193.027 1403.2 193.635C1403.2 194.244 1403.71 194.737 1404.35 194.737Z" fill="white"/>
<path d="M512.97 551.489C513.606 551.489 514.121 550.996 514.121 550.387C514.121 549.779 513.606 549.285 512.97 549.285C512.335 549.285 511.82 549.779 511.82 550.387C511.82 550.996 512.335 551.489 512.97 551.489Z" fill="white"/>
<path d="M1101.85 275.147C1102.49 275.147 1103 274.654 1103 274.045C1103 273.437 1102.49 272.943 1101.85 272.943C1101.22 272.943 1100.7 273.437 1100.7 274.045C1100.7 274.654 1101.22 275.147 1101.85 275.147Z" fill="white"/>
<path d="M1427.35 183.412C1427.98 183.412 1428.5 182.919 1428.5 182.31C1428.5 181.701 1427.98 181.208 1427.35 181.208C1426.71 181.208 1426.2 181.701 1426.2 182.31C1426.2 182.919 1426.71 183.412 1427.35 183.412Z" fill="white"/>
<path d="M535.974 540.164C536.61 540.164 537.125 539.671 537.125 539.062C537.125 538.453 536.61 537.96 535.974 537.96C535.339 537.96 534.824 538.453 534.824 539.062C534.824 539.671 535.339 540.164 535.974 540.164Z" fill="white"/>
<path d="M1113.35 173.219C1113.99 173.219 1114.5 172.725 1114.5 172.117C1114.5 171.508 1113.99 171.015 1113.35 171.015C1112.72 171.015 1112.2 171.508 1112.2 172.117C1112.2 172.725 1112.72 173.219 1113.35 173.219Z" fill="white"/>
<path d="M1438.85 81.4824C1439.48 81.4824 1440 80.989 1440 80.3803C1440 79.7717 1439.48 79.2783 1438.85 79.2783C1438.21 79.2783 1437.7 79.7717 1437.7 80.3803C1437.7 80.989 1438.21 81.4824 1438.85 81.4824Z" fill="white"/>
<path d="M547.478 438.235C548.113 438.235 548.628 437.742 548.628 437.133C548.628 436.525 548.113 436.031 547.478 436.031C546.843 436.031 546.328 436.525 546.328 437.133C546.328 437.742 546.843 438.235 547.478 438.235Z" fill="white"/>
<path d="M1089.2 127.917C1089.84 127.917 1090.35 127.423 1090.35 126.815C1090.35 126.206 1089.84 125.713 1089.2 125.713C1088.57 125.713 1088.05 126.206 1088.05 126.815C1088.05 127.423 1088.57 127.917 1089.2 127.917Z" fill="white"/>
<path d="M1414.7 36.1806C1415.33 36.1806 1415.85 35.6872 1415.85 35.0786C1415.85 34.47 1415.33 33.9766 1414.7 33.9766C1414.06 33.9766 1413.55 34.47 1413.55 35.0786C1413.55 35.6872 1414.06 36.1806 1414.7 36.1806Z" fill="white"/>
<path d="M523.322 392.933C523.957 392.933 524.472 392.44 524.472 391.831C524.472 391.223 523.957 390.729 523.322 390.729C522.687 390.729 522.172 391.223 522.172 391.831C522.172 392.44 522.687 392.933 523.322 392.933Z" fill="white"/>
<path d="M950.033 184.545C950.668 184.545 951.183 184.051 951.183 183.443C951.183 182.834 950.668 182.341 950.033 182.341C949.398 182.341 948.883 182.834 948.883 183.443C948.883 184.051 949.398 184.545 950.033 184.545Z" fill="white"/>
<path d="M1275.53 92.8076C1276.16 92.8076 1276.68 92.3142 1276.68 91.7055C1276.68 91.0969 1276.16 90.6035 1275.53 90.6035C1274.89 90.6035 1274.38 91.0969 1274.38 91.7055C1274.38 92.3142 1274.89 92.8076 1275.53 92.8076Z" fill="white"/>
<path d="M384.15 449.56C384.785 449.56 385.3 449.067 385.3 448.458C385.3 447.85 384.785 447.356 384.15 447.356C383.515 447.356 383 447.85 383 448.458C383 449.067 383.515 449.56 384.15 449.56Z" fill="white"/>
<path d="M810.861 263.823C811.496 263.823 812.011 263.33 812.011 262.721C812.011 262.113 811.496 261.619 810.861 261.619C810.226 261.619 809.711 262.113 809.711 262.721C809.711 263.33 810.226 263.823 810.861 263.823Z" fill="white"/>
<path d="M1136.36 172.086C1136.99 172.086 1137.51 171.592 1137.51 170.984C1137.51 170.375 1136.99 169.882 1136.36 169.882C1135.72 169.882 1135.21 170.375 1135.21 170.984C1135.21 171.592 1135.72 172.086 1136.36 172.086Z" fill="white"/>
<path d="M244.986 528.839C245.621 528.839 246.136 528.345 246.136 527.737C246.136 527.128 245.621 526.635 244.986 526.635C244.351 526.635 243.836 527.128 243.836 527.737C243.836 528.345 244.351 528.839 244.986 528.839Z" fill="white"/>
<path d="M660.189 388.402C660.824 388.402 661.339 387.909 661.339 387.3C661.339 386.692 660.824 386.198 660.189 386.198C659.554 386.198 659.039 386.692 659.039 387.3C659.039 387.909 659.554 388.402 660.189 388.402Z" fill="white"/>
<path d="M985.685 296.667C986.321 296.667 986.835 296.174 986.835 295.565C986.835 294.956 986.321 294.463 985.685 294.463C985.05 294.463 984.535 294.956 984.535 295.565C984.535 296.174 985.05 296.667 985.685 296.667Z" fill="white"/>
<path d="M94.3142 653.419C94.9494 653.419 95.4644 652.926 95.4644 652.317C95.4644 651.708 94.9494 651.215 94.3142 651.215C93.679 651.215 93.1641 651.708 93.1641 652.317C93.1641 652.926 93.679 653.419 94.3142 653.419Z" fill="white"/>
<path d="M567.029 512.983C567.664 512.983 568.179 512.49 568.179 511.881C568.179 511.273 567.664 510.779 567.029 510.779C566.394 510.779 565.879 511.273 565.879 511.881C565.879 512.49 566.394 512.983 567.029 512.983Z" fill="white"/>
<path d="M892.525 421.247C893.16 421.247 893.675 420.754 893.675 420.145C893.675 419.536 893.16 419.043 892.525 419.043C891.89 419.043 891.375 419.536 891.375 420.145C891.375 420.754 891.89 421.247 892.525 421.247Z" fill="white"/>
<path d="M1.15016 778C1.78537 778 2.30032 777.507 2.30032 776.898C2.30032 776.289 1.78537 775.796 1.15016 775.796C0.514944 775.796 0 776.289 0 776.898C0 777.507 0.514944 778 1.15016 778Z" fill="white"/>
</g>
</svg>
